<?xml version="1.0" standalone="no"?>
<!DOCTYPE svg PUBLIC "-//W3C//DTD SVG 20010904//EN"
 "http://www.w3.org/TR/2001/REC-SVG-20010904/DTD/svg10.dtd">
<svg version="1.0" xmlns="http://www.w3.org/2000/svg"
 width="100%" height="100%" viewBox="0 0 512.000000 512.000000"
 preserveAspectRatio="xMidYMid meet">

<g transform="translate(0.000000,512.000000) scale(0.100000,-0.100000)"
fill="#212529" stroke="none">
<path d="M1572 4585 c-99 -27 -173 -79 -237 -166 -66 -89 -85 -162 -85 -320
l0 -128 -457 -3 -458 -3 -62 -29 c-75 -34 -134 -95 -171 -174 -26 -55 -27 -63
-30 -277 l-3 -220 60 -81 c215 -288 672 -538 1245 -679 250 -61 529 -105 779
-123 l107 -8 0 49 c0 42 5 53 31 78 l31 29 235 0 235 0 29 -29 c24 -25 29 -37
29 -81 l0 -51 33 5 c17 3 70 8 117 11 331 23 745 105 1045 207 463 158 792
371 974 629 l32 46 -3 219 -3 220 -33 66 c-43 87 -111 148 -198 177 -62 20
-84 21 -503 21 l-439 0 -4 148 c-4 122 -8 157 -27 205 -42 107 -135 200 -251
249 l-55 23 -955 2 c-802 2 -963 0 -1008 -12z m1953 -172 c65 -22 136 -93 158
-158 12 -34 17 -83 17 -167 l0 -118 -1140 0 -1140 0 0 113 c0 149 16 204 79
267 83 83 18 78 1057 79 834 1 925 -1 969 -16z"/>
<path d="M72 1919 l3 -1064 27 -57 c37 -79 96 -140 171 -174 l62 -29 2205 -3
2205 -3 68 22 c89 29 155 87 199 177 l33 67 3 1064 2 1064 -68 -65 c-338 -319
-911 -555 -1603 -662 -141 -22 -454 -56 -511 -56 -15 0 -18 -9 -18 -53 0 -114
-63 -212 -168 -264 -98 -48 -222 -33 -314 39 -54 42 -108 155 -108 224 l0 52
-62 6 c-227 20 -311 30 -458 52 -675 104 -1257 342 -1588 649 l-82 77 2 -1063z"/>
</g>
</svg>
