<?xml version="1.0" standalone="no"?>
<!DOCTYPE svg PUBLIC "-//W3C//DTD SVG 20010904//EN"
 "http://www.w3.org/TR/2001/REC-SVG-20010904/DTD/svg10.dtd">
<svg version="1.0" xmlns="http://www.w3.org/2000/svg"
 width="840.000000pt" height="592.000000pt" viewBox="0 0 840.000000 592.000000"
 preserveAspectRatio="xMidYMid meet">

<g transform="translate(0.000000,592.000000) scale(0.100000,-0.100000)"
fill="#000000" stroke="none">
<path d="M2660 5513 c-77 -6 -251 -44 -349 -75 -149 -47 -226 -103 -325 -236
-175 -237 -275 -452 -322 -697 -20 -107 -22 -315 -5 -425 26 -160 132 -483
288 -880 185 -469 525 -950 1034 -1459 513 -513 1002 -858 1477 -1041 420
-163 679 -248 833 -276 126 -22 337 -22 454 0 247 48 494 164 712 334 120 94
175 171 217 304 46 142 76 298 79 397 1 67 -2 85 -19 108 -32 44 -132 105
-499 308 -187 103 -385 218 -440 255 -254 171 -305 168 -491 -22 -45 -46 -120
-132 -168 -193 -114 -144 -239 -270 -293 -296 -79 -38 -137 -18 -421 152 -360
216 -562 369 -803 609 -236 235 -391 440 -608 802 -170 284 -190 342 -152 421
26 54 150 177 301 297 63 51 150 127 193 169 185 181 187 234 17 486 -37 55
-152 253 -255 440 -199 361 -265 468 -305 496 -28 20 -83 28 -150 22z"/>
</g>
</svg>
