<?xml version="1.0" encoding="UTF-8" standalone="no"?><!DOCTYPE svg PUBLIC "-//W3C//DTD SVG 1.1//EN" "http://www.w3.org/Graphics/SVG/1.1/DTD/svg11.dtd"><svg width="100%" height="100%" viewBox="0 0 3334 2500" version="1.1" xmlns="http://www.w3.org/2000/svg" xmlns:xlink="http://www.w3.org/1999/xlink" xml:space="preserve" xmlns:serif="http://www.serif.com/" style="fill-rule:evenodd;clip-rule:evenodd;stroke-linejoin:round;stroke-miterlimit:2;"><g id="Icon"><rect x="2194.25" y="1622.15" width="46.947" height="33.952" style="fill:#e2e8ff;"/><path d="M674.225,172.217l-0,477.368l-20.317,-0l0,-469.108c-59.27,25.142 -113.619,56.899 -164.803,96.572c-472.71,366.402 -540.215,983.835 -294.3,1452.92l1712.36,-0l0,-1092.57l-649.241,-0l-0,-33.704l631.218,0c-35.622,-34.38 -68.319,-70.739 -100.41,-103.43c-215.504,-219.535 -460.741,-405.672 -769.001,-400.221c-133.939,11.06 -246.587,32.995 -345.51,72.165Z" style="fill:#d0d9fc;"/><path d="M1940.87,649.639l0,1080.33l1236.55,-0c77.955,-117.46 134.084,-254.779 114.488,-411.165c-97.613,-327.538 -277.144,-552.678 -576.311,-628.274c-151.853,-9.304 -334.025,35.378 -436.375,42.424c-59.064,4.065 -121.335,13.737 -177.727,-0.149c-56.392,-13.887 -114.162,-45.547 -160.626,-83.17Z" style="fill:#d0d9fc;"/><path d="M3177.42,1729.97l-2982.62,-0c37.849,72.897 83.455,142.072 136.243,206.2c155.238,188.588 218.465,255.546 652.604,355.976c378.806,87.631 1563.33,155.382 2021.01,-348.266c56.189,-61.833 119.666,-133.172 172.764,-213.91Z" style="fill:#c4cffa;"/><g id="stack"><rect x="2348.14" y="625.116" width="644.022" height="1118.77" style="fill:#8082dc;"/><rect x="2324.14" y="603.602" width="33.703" height="1160.13" style="fill:#b1b0ff;"/><rect x="2979.38" y="603.602" width="33.703" height="1160.13" style="fill:#b1b0ff;"/><path d="M2330.14,603.703l0,33.704l671.715,-0l-0,-33.704l-671.715,0Z" style="fill:#b1b0ff;"/><path d="M2333.02,1519.58l-0,33.703l671.714,-0l0,-33.703l-671.714,-0Z" style="fill:#b1b0ff;"/><path d="M2333.02,1317.05l-0,33.704l671.714,-0l0,-33.704l-671.714,0Z" style="fill:#b1b0ff;"/><path d="M2333.02,1108.57l-0,33.704l671.714,-0l0,-33.704l-671.714,0Z" style="fill:#b1b0ff;"/><path d="M2333.02,894.128l-0,33.703l671.714,-0l0,-33.703l-671.714,-0Z" style="fill:#b1b0ff;"/><path d="M2326.02,1729.82l0,33.703l671.715,0l-0,-33.703l-671.715,0Z" style="fill:#b1b0ff;"/></g><g id="stack1" serif:id="stack"><rect x="1275.93" y="628.833" width="639.867" height="1115.06" style="fill:#8082dc;"/><rect x="1251.93" y="603.602" width="33.703" height="1160.13" style="fill:#b1b0ff;"/><rect x="1907.17" y="1729.97" width="33.703" height="33.757" style="fill:#b1b0ff;"/><path d="M1926.05,637.407l14.825,12.232l0,1080.33l-33.703,-0l0,-1092.57l18.878,-0Z" style="fill:#b1b0ff;"/><path d="M1925.56,637.006l-36.416,-33.303l-631.218,0l-0,33.704l668.119,-0l-0.485,-0.401Z" style="fill:#b1b0ff;"/><path d="M1260.81,1519.58l0,33.703l671.715,-0l-0,-33.703l-671.715,-0Z" style="fill:#b1b0ff;"/><path d="M1260.81,1317.05l0,33.704l671.715,-0l-0,-33.704l-671.715,0Z" style="fill:#b1b0ff;"/><path d="M1253.81,1729.82l-0,33.703l671.714,0l0,-33.703l-671.714,0Z" style="fill:#b1b0ff;"/></g><path d="M1610.13,1038.78l0.229,0.655c2.468,7.06 -1.661,13.242 -12.387,18.543c-11.231,2.456 -18.017,0.336 -20.358,-6.361c-2.825,-8.08 2.46,-14.461 15.853,-19.143c6.843,-2.392 12.397,-0.29 16.663,6.306Zm-50.723,21.04l0.839,2.402c0.269,10.117 -2.435,16.168 -8.112,18.152l-4.04,1.413c-7.134,2.494 -13.554,-1.266 -19.26,-11.279c-1.604,-9.732 0.541,-15.628 6.437,-17.689l2.402,-0.84c11.283,-3.944 18.527,-1.33 21.734,7.841Z" style="fill:#cecae5;fill-rule:nonzero;"/><path d="M1692.12,1017.11c1.704,4.877 -0.952,15.853 -7.971,32.929c-13.635,38.339 -41.526,64.876 -83.671,79.61c-16.233,5.674 -35.741,7.47 -58.524,5.388c-36.769,-9.61 -56.541,-18.382 -59.314,-26.316c-2.82,-1.057 -4.955,-3.659 -6.406,-7.808c0.009,-2.781 1.214,-4.591 3.616,-5.43c2.62,-0.916 17.053,2.166 43.299,9.246c24.213,4.769 43.712,5.753 58.499,2.953c7.191,-0.227 13.334,-1.231 18.429,-3.012l1.638,-0.573c27.151,-9.491 53.771,-36.156 79.861,-79.993c3.325,-4.511 6.115,-7.161 8.371,-7.95c0.357,1.019 1.081,1.338 2.173,0.956Z" style="fill:#cecae5;fill-rule:nonzero;"/><path d="M1431.27,798.957c2.763,0.642 5.255,8.414 7.476,23.317c5.428,11.843 8.167,20.035 8.216,24.575l-0.148,0.518c-1.135,4.639 -3.75,6.465 -7.846,5.478c-10.955,-8.981 -20.43,-14.434 -28.425,-16.359l-0.444,-0.074c-9.573,-2.319 -19.541,4.071 -29.904,19.172l-0.148,0.518l0.74,0.74l2.665,0.592c2.072,0.494 15.618,0.79 40.637,0.888c5.231,0.938 8.513,1.555 9.845,1.851c16.433,3.997 29.658,11.942 39.676,23.835c3.059,5.527 3.898,11.153 2.517,16.877c-2.122,13.472 -15.619,22.132 -40.49,25.981c-12.387,2.616 -22.478,2.986 -30.275,1.111l-5.774,-1.407c-12.781,-3.109 -20.282,-10.881 -22.502,-23.316c-0,-2.665 0.271,-5.059 0.814,-7.181l0.74,-2.96c4.787,-11.844 11.128,-16.803 19.024,-14.879c4.392,2.616 6.44,4.516 6.143,5.7l-0.222,0.962c-0.444,1.826 -3.553,3.726 -9.326,5.7c-2.122,2.122 -3.381,4.096 -3.775,5.922l-0.889,3.479c-1.332,5.527 3.923,10.289 15.767,14.286c15.396,3.701 31.533,0.789 48.41,-8.735c3.751,-2.714 5.823,-4.836 6.218,-6.366l0.222,-1.036c1.431,-9.672 -8.858,-17.963 -30.867,-24.871c-6.317,-1.53 -20.874,-2.073 -43.673,-1.629c-1.53,0 -3.504,-0.296 -5.922,-0.888c-10.017,-2.418 -13.916,-8.266 -11.695,-17.543c3.504,-13.225 13.916,-23.391 31.237,-30.497c5.971,-0.642 10.807,-0.518 14.508,0.37c3.899,0.938 9.154,3.084 15.767,6.44c-2.566,-8.488 -3.874,-17.395 -3.923,-26.722c1.184,-3.207 3.059,-4.49 5.626,-3.849Z" style="fill:#cecae5;fill-rule:nonzero;"/><path d="M1504.32,814.428c7.254,-1.382 14.187,0.197 20.8,4.737c5.478,5.527 9.82,12.978 13.028,22.354l1.924,5.774c3.751,19.986 2.369,35.679 -4.145,47.078c-2.418,8.537 -10.289,16.359 -23.613,23.465c-2.171,0.641 -3.972,1.085 -5.403,1.332l-5.478,1.037c-10.511,1.973 -20.06,-4.22 -28.646,-18.58c-3.307,-3.306 -5.478,-7.723 -6.514,-13.25c-2.122,-11.35 0.469,-26.277 7.772,-44.783c11.202,-16.433 18.678,-24.995 22.429,-25.685c3.75,-2.073 6.365,-3.233 7.846,-3.479Zm-23.169,70.246c5.873,15.446 13.028,22.379 21.466,20.8c15.348,-2.862 24.082,-14.286 26.204,-34.272c0.494,-2.566 -0.099,-8.29 -1.776,-17.173c-1.58,-8.488 -5.281,-15.692 -11.104,-21.614c-2.418,-1.579 -5.872,-1.949 -10.363,-1.11c-5.823,2.072 -13.348,11.251 -22.576,27.536c-2.32,7.846 -2.813,16.432 -1.481,25.759l-0.37,0.074Z" style="fill:#cecae5;fill-rule:nonzero;"/><path d="M1568.94,800.734c2.566,-0 6.588,4.614 12.065,13.842l41.823,35.826c4.342,5.428 6.514,10.042 6.514,13.842c-0,6.563 -5.898,13.102 -17.692,19.616l0,0.888c2.566,4.935 15.841,20.06 39.824,45.375c1.382,2.27 2.073,4.022 2.073,5.256c-1.382,2.862 -3.751,4.293 -7.106,4.293l-2.073,0c-4.737,0 -12.756,-6.859 -24.057,-20.578c-0.592,0 -5.33,-4.762 -14.212,-14.286c-6.267,-8.241 -9.771,-12.362 -10.511,-12.362c-7.205,1.53 -13.571,3.43 -19.098,5.7c7.057,12.633 10.585,19.789 10.585,21.466c-1.332,3.159 -3.183,4.738 -5.551,4.738l-1.555,-0c-5.033,-0 -9.401,-3.8 -13.102,-11.4l-6.958,-10.955c-8.636,1.283 -14.039,1.925 -16.211,1.925c-3.75,-0 -6.933,-1.925 -9.548,-5.774l-0,-1.924c-0,-3.504 5.008,-5.577 15.026,-6.218c3.06,-0 5.626,-0.296 7.698,-0.889c-1.036,-5.823 -1.875,-14.113 -2.516,-24.871c-0,-32.027 1.653,-48.41 4.959,-49.15c1.332,-3.06 1.999,-4.984 1.999,-5.774c-1.678,-2.566 -2.517,-4.614 -2.517,-6.144c-0,-1.628 3.38,-2.442 10.141,-2.442Zm3.997,25.315c-0.345,3.208 -0.518,5.601 -0.518,7.18c-0,10.067 -0.173,21.047 -0.518,32.94c0.345,7.945 0.863,14.138 1.554,18.579c12.14,-2.615 18.209,-4.984 18.209,-7.106c0,-1.036 2.813,-1.999 8.439,-2.887c6.711,-4.046 10.067,-7.55 10.067,-10.511l-0,-0.444c-0,-3.948 -6.687,-11.128 -20.06,-21.54c-2.171,-1.777 -7.723,-7.18 -16.655,-16.211l-0.518,-0Z" style="fill:#cecae5;fill-rule:nonzero;"/><path d="M1662.14,800.734c2.566,-0 6.588,4.614 12.066,13.842l41.822,35.826c4.342,5.428 6.514,10.042 6.514,13.842c-0,6.563 -5.897,13.102 -17.691,19.616l-0,0.888c2.566,4.935 15.84,20.06 39.823,45.375c1.382,2.27 2.073,4.022 2.073,5.256c-1.382,2.862 -3.751,4.293 -7.106,4.293l-2.073,0c-4.737,0 -12.756,-6.859 -24.057,-20.578c-0.592,0 -5.329,-4.762 -14.212,-14.286c-6.267,-8.241 -9.771,-12.362 -10.511,-12.362c-7.205,1.53 -13.571,3.43 -19.098,5.7c7.057,12.633 10.585,19.789 10.585,21.466c-1.332,3.159 -3.183,4.738 -5.551,4.738l-1.555,-0c-5.033,-0 -9.4,-3.8 -13.101,-11.4l-6.959,-10.955c-8.635,1.283 -14.039,1.925 -16.21,1.925c-3.751,-0 -6.934,-1.925 -9.549,-5.774l-0,-1.924c-0,-3.504 5.009,-5.577 15.026,-6.218c3.06,-0 5.626,-0.296 7.699,-0.889c-1.037,-5.823 -1.876,-14.113 -2.517,-24.871c-0,-32.027 1.653,-48.41 4.959,-49.15c1.333,-3.06 1.999,-4.984 1.999,-5.774c-1.678,-2.566 -2.517,-4.614 -2.517,-6.144c0,-1.628 3.38,-2.442 10.141,-2.442Zm3.997,25.315c-0.345,3.208 -0.518,5.601 -0.518,7.18c0,10.067 -0.173,21.047 -0.518,32.94c0.345,7.945 0.864,14.138 1.554,18.579c12.14,-2.615 18.21,-4.984 18.21,-7.106c-0,-1.036 2.813,-1.999 8.438,-2.887c6.712,-4.046 10.067,-7.55 10.067,-10.511l0,-0.444c0,-3.948 -6.686,-11.128 -20.06,-21.54c-2.171,-1.777 -7.723,-7.18 -16.655,-16.211l-0.518,-0Z" style="fill:#cecae5;fill-rule:nonzero;"/><path d="M1744.45,810.282c3.06,0 5.132,2.813 6.218,8.439l-0.444,2.369l-0,7.106c-0,1.283 -0.148,2.985 -0.444,5.107c0.296,0.592 0.444,1.209 0.444,1.851l-0.444,1.036c0.296,0.493 0.444,1.11 0.444,1.85c-0.296,1.629 -0.444,2.567 -0.444,2.813c-0,0.296 0.148,0.444 0.444,0.444l-0.444,1.925c-0,10.116 1.53,16.507 4.589,19.172c4.984,4.392 10.61,6.588 16.877,6.588c8.34,-0 15.89,-4.047 22.651,-12.14c2.763,-6.267 4.145,-9.87 4.145,-10.807c-0.543,-7.304 -1.234,-14.04 -2.073,-20.208l0.444,-0c-0.296,-0.642 -0.444,-1.135 -0.444,-1.481c0,-8.438 1.234,-12.657 3.701,-12.657c0,-0.543 1.382,-0.839 4.146,-0.889c5.576,0 9.154,1.876 10.733,5.626l-0.444,2.295c0.296,5.527 0.715,9.302 1.258,11.325c-0.543,6.218 -0.814,12.164 -0.814,17.839l-0,4.738c-0,1.036 0.123,1.801 0.37,2.294l-0.37,2.887l-0,6.588c-0,17.519 -3.997,32.224 -11.992,44.117c-13.916,14.114 -24.772,21.17 -32.569,21.17c-9.13,0 -20.381,-5.798 -33.754,-17.395c-2.468,-3.01 -3.849,-5.379 -4.145,-7.106c0.592,-2.171 1.406,-3.257 2.442,-3.257c4.047,0 10.783,3.455 20.208,10.363c2.221,1.629 5.799,2.739 10.733,3.331c6.514,0 13.793,-3.479 21.837,-10.437c8.537,-6.119 12.806,-15.643 12.806,-28.572l-0,-7.106c-0,-0.592 -0.272,-0.889 -0.815,-0.889c-9.178,8.784 -18.678,13.176 -28.498,13.176l-4.071,0c-13.768,0 -25.316,-7.081 -34.642,-21.244c-1.086,-3.652 -1.777,-6.933 -2.073,-9.845c0.296,-0.641 0.444,-1.085 0.444,-1.332c0,-0.346 -0.148,-0.518 -0.444,-0.518c-0,-3.257 1.382,-10.462 4.145,-21.615c2.665,-11.3 6.095,-16.951 10.289,-16.951Z" style="fill:#cecae5;fill-rule:nonzero;"/><g id="server"><path d="M2948.22,1618.53c0,-20.266 -16.453,-36.72 -36.719,-36.72l-482.94,0c-20.266,0 -36.719,16.454 -36.719,36.72l-0,73.439c-0,20.266 16.453,36.719 36.719,36.719l482.94,0c20.266,0 36.719,-16.453 36.719,-36.719l0,-73.439Z" style="fill:#5b5dc1;"/><rect x="2854.41" y="1612.52" width="24.016" height="84.61" style="fill:#aeafff;"/><rect x="2806.76" y="1612.52" width="24.016" height="84.61" style="fill:#aeafff;"/><rect x="2759.11" y="1612.52" width="24.016" height="84.61" style="fill:#aeafff;"/><circle cx="2473.1" cy="1653.54" r="23.827" style="fill:#aeafff;"/></g><g id="server1" serif:id="server"><path d="M2948.22,1410.4c0,-20.266 -16.453,-36.719 -36.719,-36.719l-482.94,-0c-20.266,-0 -36.719,16.453 -36.719,36.719l-0,73.439c-0,20.266 16.453,36.72 36.719,36.72l482.94,-0c20.266,-0 36.719,-16.454 36.719,-36.72l0,-73.439Z" style="fill:#5b5dc1;"/><rect x="2854.41" y="1404.39" width="24.016" height="84.61" style="fill:#aeafff;"/><rect x="2806.76" y="1404.39" width="24.016" height="84.61" style="fill:#aeafff;"/><rect x="2759.11" y="1404.39" width="24.016" height="84.61" style="fill:#aeafff;"/><circle cx="2473.1" cy="1445.42" r="23.827" style="fill:#aeafff;"/></g><g id="server2" serif:id="server"><path d="M2948.22,1207.88c0,-20.266 -16.453,-36.72 -36.719,-36.72l-482.94,0c-20.266,0 -36.719,16.454 -36.719,36.72l-0,73.439c-0,20.266 16.453,36.72 36.719,36.72l482.94,-0c20.266,-0 36.719,-16.454 36.719,-36.72l0,-73.439Z" style="fill:#5b5dc1;"/><rect x="2854.41" y="1201.87" width="24.016" height="84.61" style="fill:#aeafff;"/><rect x="2806.76" y="1201.87" width="24.016" height="84.61" style="fill:#aeafff;"/><rect x="2759.11" y="1201.87" width="24.016" height="84.61" style="fill:#aeafff;"/><circle cx="2473.1" cy="1242.89" r="23.827" style="fill:#aeafff;"/></g><g id="server3" serif:id="server"><path d="M2948.22,993.434c0,-20.266 -16.453,-36.719 -36.719,-36.719l-482.94,-0c-20.266,-0 -36.719,16.453 -36.719,36.719l-0,73.439c-0,20.267 16.453,36.72 36.719,36.72l482.94,-0c20.266,-0 36.719,-16.453 36.719,-36.72l0,-73.439Z" style="fill:#5b5dc1;"/><rect x="2854.41" y="987.424" width="24.016" height="84.61" style="fill:#aeafff;"/><rect x="2806.76" y="987.424" width="24.016" height="84.61" style="fill:#aeafff;"/><rect x="2759.11" y="987.424" width="24.016" height="84.61" style="fill:#aeafff;"/><circle cx="2473.1" cy="1028.45" r="23.827" style="fill:#aeafff;"/></g><g id="server4" serif:id="server"><path d="M2948.22,784.949c0,-20.266 -16.453,-36.719 -36.719,-36.719l-482.94,-0c-20.266,-0 -36.719,16.453 -36.719,36.719l-0,73.439c-0,20.267 16.453,36.72 36.719,36.72l482.94,0c20.266,0 36.719,-16.453 36.719,-36.72l0,-73.439Z" style="fill:#5b5dc1;"/><rect x="2854.41" y="778.939" width="24.016" height="84.61" style="fill:#aeafff;"/><rect x="2806.76" y="778.939" width="24.016" height="84.61" style="fill:#aeafff;"/><rect x="2759.11" y="778.939" width="24.016" height="84.61" style="fill:#aeafff;"/><circle cx="2473.1" cy="819.963" r="23.827" style="fill:#aeafff;"/></g><path d="M2324.53,1634.46c1.077,2.783 -8.19,1.323 -12.746,0.771c-4.98,-0.605 -9.123,-3.518 -16.457,-5.735c-5.275,-1.595 -10.234,-4.947 -15.35,-6.141c-4.994,-1.165 -12.281,-3.752 -15.351,-1.023c-3.07,2.729 -0.511,13.474 -3.07,17.397c-2.5,3.834 -7.78,5.307 -12.28,6.14c-4.605,0.853 -25.234,-2.929 -28.056,-4.285c-2.188,-1.052 -1.087,-5.008 0.998,-6.081c2.084,-1.074 20.301,3.461 24.213,2.902c3.371,-0.481 7.525,-1.175 9.39,-4.024c2.012,-3.074 1.397,-11.178 2.682,-14.419c0.874,-2.204 2.692,-4.634 5.03,-5.03c3.633,-0.615 11.458,0.168 16.767,1.341c5.25,1.161 10.008,3.945 15.09,5.701c6.148,2.124 14.315,6.665 17.951,7.372c3.117,0.605 10.081,1.411 11.213,-0.044c1.133,-1.455 -0.801,3.148 -0.024,5.158Z" style="fill:#420f70;"/><ellipse cx="2218.84" cy="1639.05" rx="11.675" ry="10.902" style="fill:#420f70;"/><rect x="2021.44" y="1621.73" width="44.941" height="33.952" style="fill:#e2e8ff;"/><path d="M1940.76,1634.09c-0.365,2.945 8.708,8.373 13.102,8.505c4.825,0.145 8.388,-0.185 15.409,-2.402c5.049,-1.595 10.742,-14.859 15.64,-16.052c4.781,-1.166 9.835,-4.113 12.774,-1.384c2.939,2.729 1.81,12.634 4.259,16.557c2.393,3.833 7.448,5.307 11.756,6.14c4.408,0.853 24.156,-2.93 26.857,-4.285c2.095,-1.052 1.04,-5.008 -0.955,-6.082c-1.995,-1.073 -19.434,3.462 -23.179,2.903c-3.227,-0.482 -6.764,0.935 -8.549,-1.914c-1.926,-3.074 -1.953,-11.002 -3.183,-14.244c-0.837,-2.204 -2.665,-4.722 -4.903,-5.118c-3.478,-0.614 -12.814,1.311 -17.897,2.484c-5.026,1.161 -10.25,12.888 -14.597,15.162c-5.544,2.901 -11.977,2.789 -15.515,2.343c-3.021,-0.381 -9.373,-6.406 -10.457,-7.861c-1.084,-1.455 -0.267,2.878 -0.562,5.248Z" style="fill:#420f70;"/><ellipse cx="2042.84" cy="1638.63" rx="11.176" ry="10.902" style="fill:#420f70;"/><g id="matafuego"><path d="M2128.13,1073.2c-21.745,1.201 -44.878,6.184 -46.091,23.366c-2.856,40.471 2.451,224.76 -0.764,225.403l128.366,1.528c-3.128,-1.042 0.54,-188.335 -0.765,-227.695c-0.585,-17.654 -28.316,-22.531 -48.136,-22.158c-11.913,4.65 -22.833,4.734 -32.61,-0.444Z" style="fill:#eb2d2d;"/><path d="M2078.43,1329.66l1.467,53.302c0.244,8.745 5.086,13.493 15.159,13.692l100.142,0.832c9.006,0.352 13.375,-3.931 14.261,-11.698l0.321,-55.923l-131.35,-0.205Z" style="fill:#eb2d2d;"/><path d="M2104.33,1039.48l0.25,13.771c-52.572,10.924 -78.867,38.599 -78.026,83.573c3.226,30.251 10.876,59.32 22.829,87.601c5.176,12.247 10.398,24.908 12.869,38.075c2.796,14.903 3.912,51.346 3.912,51.346l-12.943,-0.056c-0,0 0.206,-33.36 -3.946,-49.323c-5.551,-21.342 -20.004,-54.661 -29.364,-78.73c-6.301,-17.94 -6.269,-35.599 -6.56,-50.869c0.093,-28.191 8.39,-50.914 25.917,-67.483c23.014,-18.78 44.441,-26.219 65.062,-27.905Z" style="fill:#2a1c42;"/><path d="M2109.03,1038.95l0.102,14.748l13.435,-0.02c-0,-0 0.049,3.985 0.028,4.028c0.021,-0.043 4.074,0.084 4.074,0.084l-0,-22.459l-3.759,0.03l0.037,3.563l-13.917,0.026Z" style="fill:#2a1c42;"/><ellipse cx="2144.85" cy="1044.58" rx="10.319" ry="9.871" style="fill:#2a1c42;"/><path d="M2128.13,1073.29c10.122,5.347 21.187,5.39 32.676,0.345l0.102,-18.152c-11.509,9.728 -22.264,8.903 -32.406,-0.513l-0.372,18.32Z" style="fill:#2a1c42;"/><path d="M2130.13,1035.44c7.591,-6.545 15.109,-10.563 22.357,-5.127l9.177,-6.348l-0,-5.025c-0,-0 34.946,-21.44 43.379,-25.638c2.159,-1.075 5.419,0.69 7.221,0.444c1.345,-0.184 2.649,-1.047 3.589,-1.923c0.94,-0.876 2.457,-2.35 2.051,-3.333c-0.406,-0.983 -2.784,-2.299 -4.486,-2.564c-2.201,-0.342 -5.875,-0.112 -8.717,0.513c-3.013,0.662 -6.342,2.061 -9.358,3.461c-12.478,5.79 -65.506,31.279 -65.506,31.279l0.293,14.261Z" style="fill:#2a1c42;"/><path d="M2159.13,1035.66l3.846,10.255l7.211,-7.21l30.766,-2.564c-0,-0 6.248,-0.854 11.443,-1.323c2.438,-0.221 4.643,-0.356 5.862,-0.28c2.123,0.134 4.033,1.747 5.609,2.415c1.216,0.515 2.751,1.618 3.846,1.591c0.981,-0.024 2.056,-0.401 2.724,-1.121c0.667,-0.721 1.442,-2.137 1.282,-3.205c-0.161,-1.068 -1.235,-2.379 -2.244,-3.205c-1.175,-0.961 -3.08,-2.003 -4.807,-2.564c-1.976,-0.641 -4.662,-1.242 -7.05,-1.282c-9.695,-0.16 -51.117,0.321 -51.117,0.321l-7.371,8.172Z" style="fill:#2a1c42;"/><path d="M2050.42,1318.99l18.357,-0.206l-5.943,24.246l1.91,1.225l2.495,0.885l-0.206,3.077l-16.305,-0.205l-0,-2.666l2.461,-0.923l2.461,-1.334l-5.23,-24.099Z" style="fill:#2a1c42;"/></g><g id="Lamp"><path d="M674.225,172.217l-14.607,5.736l-5.71,2.524l0,469.108l20.317,-0l-0,-477.368Z" style="fill:#b1b0ff;"/><path d="M653.908,649.585l-125.097,85.257l277.599,-0.89l-131.801,-84.629l-20.701,0.262Z" style="fill:#b1b0ff;"/><path d="M800.733,737.192l-3.233,-3.233l-258.291,0l-3.232,3.233l-0,6.465l3.232,3.232l258.291,0l3.233,-3.232l-0,-6.465Z" style="fill:#fff;"/><path d="M529.074,734.788l-491.765,480.599l16.422,402.765l233.653,413.455l214.653,184.295l356.252,131.168l818.122,47.232l1012.66,-106.104l-745.66,-524.768l-691.397,0.215l1.019,-660.945l-446.663,-368.736l-277.296,0.824Z" style="fill:#fff;fill-opacity:0.14;"/></g></g></svg>