<?xml version="1.0" standalone="no"?>
<!DOCTYPE svg PUBLIC "-//W3C//DTD SVG 20010904//EN"
 "http://www.w3.org/TR/2001/REC-SVG-20010904/DTD/svg10.dtd">
<svg version="1.0" xmlns="http://www.w3.org/2000/svg"
 width="100%" height="100%" viewBox="0 0 512.000000 512.000000"
 preserveAspectRatio="xMidYMid meet">

<g transform="translate(0.000000,512.000000) scale(0.100000,-0.100000)"
fill="#212529" stroke="none">
<path d="M2300 4670 c-542 -96 -988 -485 -1160 -1011 -78 -237 -91 -530 -36
-787 109 -505 454 -1155 988 -1867 135 -180 394 -501 454 -564 11 -13 19 -8
56 34 217 246 531 659 733 965 371 559 597 1035 681 1435 37 175 44 406 16
570 -108 630 -594 1118 -1220 1226 -149 25 -366 25 -512 -1z m395 -955 c181
-47 333 -199 380 -380 47 -181 -7 -377 -140 -510 -167 -167 -419 -204 -629
-92 -121 64 -226 197 -261 332 -19 76 -19 194 0 270 47 178 198 331 376 379
72 19 201 20 274 1z"/>
</g>
</svg>
