<?xml version="1.0" standalone="no"?>
<!DOCTYPE svg PUBLIC "-//W3C//DTD SVG 20010904//EN"
 "http://www.w3.org/TR/2001/REC-SVG-20010904/DTD/svg10.dtd">
<svg version="1.0" xmlns="http://www.w3.org/2000/svg"
 width="100%" height="100%" viewBox="0 0 512.000000 512.000000"
 preserveAspectRatio="xMidYMid meet">

<g transform="translate(0.000000,512.000000) scale(0.100000,-0.100000)"
fill="#212529" stroke="none">
<path d="M1268 4532 l-1268 -587 0 -102 0 -103 195 0 c189 0 195 -1 195 -20 0
-30 27 -91 53 -119 12 -13 40 -32 62 -42 38 -18 117 -19 2055 -19 1938 0 2017
1 2055 19 22 10 50 29 62 42 26 28 53 89 53 119 0 19 6 20 195 20 l195 0 0
103 0 102 -1272 588 c-700 323 -1282 587 -1293 586 -11 -1 -590 -265 -1287
-587z"/>
<path d="M780 2171 l0 -1179 -129 -3 c-125 -4 -131 -5 -172 -34 -23 -16 -53
-50 -66 -74 -20 -39 -23 -58 -23 -168 l0 -123 2170 0 2170 0 0 123 c0 110 -3
129 -23 168 -13 24 -43 58 -66 74 -41 29 -47 30 -172 34 l-129 3 0 1179 0
1179 -300 0 -300 0 0 -1180 0 -1180 -195 0 -195 0 0 1180 0 1180 -300 0 -300
0 0 -1180 0 -1180 -190 0 -190 0 0 1180 0 1180 -300 0 -300 0 0 -1180 0 -1180
-195 0 -195 0 0 1180 0 1180 -300 0 -300 0 0 -1179z"/>
<path d="M126 385 c-21 -7 -51 -26 -67 -41 -50 -48 -59 -80 -59 -218 l0 -126
2561 0 2561 0 -4 139 c-3 139 -3 139 -34 178 -17 21 -46 47 -65 58 -34 20 -54
20 -2444 22 -2029 2 -2416 0 -2449 -12z"/>
</g>
</svg>
